<svg
  version="1.1"
  xmlns="http://www.w3.org/2000/svg"
  viewBox="0 0 489 501"
  width="100%"
>
  <defs>
    <filter id="smooth">
      <feGaussianBlur stdDeviation="0.4" result="blur" />
      <feColorMatrix
        in="blur"
        type="matrix"
        values="1 0 0 0 0
                0 1 0 0 0
                0 0 1 0 0
                0 0 0 18 -7"
        result="smooth"
      />
      <feBlend in="SourceGraphic" in2="smooth" />
    </filter>
  </defs>
  <path fill="#000000" opacity="1.000000" stroke="none" d="M 284 502 C 189.333 502 95.167 502 1 502 C 1 335 1 168 1 1 C 164 1 327 1 490 1 C 490 168 490 335 490 502 C 421.5 502 353 502 284 502 M 285.538 86.996 C 301.634 88.958 316.681 94.28 331.046 101.57 C 348.842 110.601 364.187 122.684 377.454 137.737 C 388.373 150.126 396.876 163.904 403.211 178.907 C 409.214 193.126 413.23 208.066 414.223 223.511 C 429.183 225.467 443.98 227.401 459.654 229.45 C 453.825 155.626 420.649 97.894 354.743 64.106 C 274.601 23.02 197.184 33.041 129.157 92.13 C 83.608 131.693 63.138 184.141 64.969 245.758 C 73.206 244.058 80.558 241.688 88.025 241.238 C 95.577 240.782 103.244 242.227 110.741 242.83 C 110.01 240.677 109.051 239.181 109.084 237.708 C 109.188 233.119 109.49 228.517 110.039 223.96 C 110.991 216.061 111.166 207.872 113.514 200.384 C 117.213 188.581 121.803 176.95 127.176 165.806 C 134.867 149.857 146.141 136.252 159.263 124.518 C 170.783 114.217 183.622 105.734 197.935 99.285 C 210.769 93.502 223.846 89.176 237.676 87.048 C 243.633 86.131 249.68 85.175 255.672 85.252 C 265.331 85.376 274.979 86.341 285.538 86.996 M 234.358 323.887 C 231.27 320.384 228.363 316.699 225.055 313.419 C 218.719 307.135 212.281 300.94 205.635 294.987 C 202.032 291.758 197.987 288.999 194.006 286.222 C 190.369 283.683 186.685 281.15 182.774 279.082 C 178.705 276.931 174.267 275.489 170.123 273.467 C 165.354 271.139 160.939 267.926 155.99 266.169 C 149.685 263.93 143.048 262.52 136.465 261.194 C 126.85 259.257 117.196 256.617 107.486 256.263 C 93.706 255.76 79.612 254.163 65.274 259.842 C 67.169 269.358 68.962 279.025 71.185 288.592 C 71.437 289.679 74.304 291.126 75.626 290.845 C 87.017 288.416 98.442 289.335 109.87 290.029 C 113.784 290.267 117.848 290.247 121.548 291.344 C 130.176 293.902 138.668 296.943 147.127 300.032 C 151.877 301.766 156.606 303.691 161.065 306.055 C 167.464 309.448 173.941 312.863 179.766 317.115 C 185.548 321.335 190.836 326.339 195.845 331.481 C 202.115 337.917 208.837 344.233 213.618 351.717 C 219.43 360.813 226.045 369.644 229.003 380.427 C 231.311 388.84 234.855 396.936 236.828 405.41 C 238.367 412.02 238.033 419.045 239.131 425.788 C 239.657 429.02 238.231 434.452 243.202 434.786 C 253.071 435.451 263.015 434.983 274.302 434.983 C 272.773 425.98 271.334 417.875 270.036 409.747 C 268.939 402.872 268.334 395.902 266.905 389.101 C 265.559 382.697 263.799 376.319 261.517 370.192 C 259.524 364.844 256.149 360.016 254.092 354.686 C 249.69 343.278 242.293 333.866 234.358 323.887 M 318.588 266.943 C 312.885 271.576 307.074 276.082 301.508 280.874 C 295.292 286.226 288.629 291.267 283.358 297.462 C 274.502 307.872 265.731 318.491 259.653 330.91 C 258.942 332.362 258.506 334.6 259.117 335.936 C 261.849 341.899 265.292 347.541 267.932 353.54 C 270.622 359.653 272.622 366.068 275.055 372.3 C 275.456 373.328 276.526 374.096 277.286 374.983 C 289.335 337.425 312.22 308.821 346.484 290.15 C 380.987 271.349 417.505 265.321 456.139 277.605 C 457.34 265.946 458.508 254.609 459.666 243.364 C 457.451 243.002 456.331 242.801 455.205 242.638 C 444.478 241.089 433.788 238.743 423.011 238.238 C 413.266 237.781 403.418 239.229 393.634 240.051 C 388.796 240.458 383.958 241.143 379.198 242.093 C 376.245 242.682 373.477 244.138 370.559 244.972 C 364.577 246.681 358.236 247.52 352.608 250 C 341.233 255.011 330.236 260.878 318.588 266.943 M 308.445 344.046 C 308.257 344.831 307.436 345.686 307.086 346.391 C 303.045 354.534 299.7 362.638 295.676 370.79 C 295.676 370.79 293.674 374.888 292.105 379.082 C 289.648 385.647 287.752 399.226 287.752 399.226 C 287.752 399.226 283.827 422.449 289.083 434.047 C 299.509 431.733 308.085 429.339 319.704 426.76 C 319.318 423.793 319.498 421.931 319.514 419.896 C 319.54 416.477 320.318 413.171 320.478 409.738 C 320.91 400.447 323.595 391.649 326.723 382.829 C 330.461 372.294 336.566 363.57 343.216 354.976 C 349.231 347.204 356.917 341.34 365.046 336.002 C 373.778 330.268 383.321 326.72 393.391 323.778 C 408.979 319.224 424.171 319.54 440.596 323.77 C 444.406 313.608 448.354 303.078 452.35 292.419 C 448.352 291.63 445.053 290.835 441.709 290.348 C 433.533 289.156 425.362 287.659 417.137 287.172 C 412.391 286.891 407.531 288.258 402.744 289.014 C 391.969 290.717 380.797 290.611 370.75 295.706 C 361.102 300.6 351.021 304.871 342.061 310.818 C 334.542 315.808 328.157 322.607 321.661 329.002 C 317.1 333.492 313.198 338.651 308.445 344.046 M 207.631 427.998 C 212.991 429.279 218.35 430.559 223.789 431.859 C 222.784 361.064 160.472 295.721 77.105 306.425 C 77.077 306.917 76.865 307.497 77.047 307.899 C 81.593 317.969 86.18 328.019 90.35 337.173 C 99.149 338.564 106.829 339.816 114.522 340.983 C 125.142 342.594 134.739 346.895 143.811 352.375 C 154.572 358.874 163.518 367.162 171.301 377.297 C 179.71 388.247 184.857 400.257 187.868 413.339 C 189.275 419.454 191.372 423.901 198.145 425.066 C 201.106 425.575 203.914 426.974 207.631 427.998 M 429.553 342.957 C 430.399 341.472 431.245 339.987 432.234 338.251 C 427.523 337.105 423.141 335.568 418.885 335.225 C 410.702 334.565 403.109 334.497 395.972 336.503 C 390.778 337.963 383.896 340.749 379.372 343.822 C 372.902 348.216 367.447 351.416 361.523 356.402 C 356.337 360.766 352.087 366.546 348.422 372.333 C 344.636 378.311 341.528 384.861 339.114 391.52 C 337.274 396.595 335.459 402.235 334.442 407.615 C 333.576 412.195 334.188 416.762 333.183 421.832 C 366.612 410.445 406.111 381.062 429.553 342.957 M 123.016 378.523 C 137.557 392.614 153.711 404.466 172.295 414.13 C 169.352 396.66 160.29 383.487 147.412 372.901 C 125.238 354.674 112.199 354.729 101.947 354.805 C 109.133 362.912 115.823 370.46 123.016 378.523 Z"></path>
  <path fill="#FFFFFF" opacity="1.000000" stroke="none" d="
M285.084656,86.973343 
	C274.979156,86.340691 265.331177,85.375671 255.672363,85.251625 
	C249.679688,85.174652 243.633408,86.131416 237.676422,87.048103 
	C223.845840,89.176414 210.768921,93.502327 197.934647,99.284981 
	C183.621658,105.733902 170.783356,114.216690 159.263107,124.518318 
	C146.140869,136.252472 134.867050,149.857376 127.176384,165.806259 
	C121.802719,176.950165 117.213417,188.581497 113.513535,200.383759 
	C111.166031,207.872055 110.991013,216.061081 110.039169,223.959656 
	C109.489929,228.517349 109.187744,233.119064 109.084373,237.707947 
	C109.051186,239.181274 110.009552,240.676926 110.741272,242.830460 
	C103.244125,242.227432 95.577408,240.782135 88.025352,241.237686 
	C80.557709,241.688110 73.205864,244.058212 64.969414,245.758347 
	C63.138264,184.140976 83.608383,131.693268 129.157166,92.129616 
	C197.184097,33.041462 274.600739,23.019747 354.743225,64.106133 
	C420.649200,97.893967 453.825348,155.625854 459.653961,229.450333 
	C443.979645,227.401245 429.183044,225.466919 414.223206,223.511246 
	C413.229675,208.066437 409.213959,193.126419 403.210815,178.907440 
	C396.876282,163.903564 388.373047,150.126312 377.453522,137.736755 
	C364.187164,122.684433 348.841583,110.601189 331.045929,101.570061 
	C316.681122,94.280067 301.634247,88.957726 285.084656,86.973343 
z"></path>
  <path fill="#FFFFFF" opacity="1.000000" stroke="none" d="
M234.642334,324.137787 
	C242.292923,333.865906 249.689621,343.278015 254.091721,354.685516 
	C256.148773,360.016205 259.524017,364.844025 261.516602,370.192261 
	C263.799225,376.318939 265.559052,382.697113 266.904816,389.100739 
	C268.334106,395.901550 268.938599,402.872009 270.036194,409.747192 
	C271.333679,417.874786 272.773468,425.979675 274.302460,434.982788 
	C263.015228,434.982788 253.070740,435.450653 243.202484,434.786316 
	C238.231216,434.451630 239.657104,429.019958 239.130844,425.787903 
	C238.032898,419.044983 238.366714,412.020020 236.827881,405.409973 
	C234.855011,396.935608 231.310547,388.839844 229.002777,380.427490 
	C226.044617,369.644257 219.429886,360.812500 213.618454,351.716522 
	C208.837357,344.233124 202.115341,337.916687 195.845276,331.480774 
	C190.835770,326.338806 185.547577,321.335480 179.766449,317.115295 
	C173.941132,312.862854 167.463821,309.447540 161.065445,306.055359 
	C156.605682,303.690948 151.876923,301.766052 147.127090,300.031647 
	C138.668411,296.942963 130.175568,293.901733 121.547783,291.344025 
	C117.848145,290.247284 113.783684,290.266541 109.869789,290.028748 
	C98.442276,289.334534 87.016731,288.416260 75.626083,290.844543 
	C74.304253,291.126312 71.436996,289.679047 71.184540,288.592377 
	C68.961830,279.024963 67.169426,269.357544 65.273956,259.841736 
	C79.611801,254.163025 93.706375,255.760391 107.486382,256.263153 
	C117.196243,256.617432 126.850311,259.257233 136.465302,261.194122 
	C143.048172,262.520264 149.685333,263.929840 155.990463,266.168793 
	C160.939255,267.926117 165.353882,271.139465 170.122620,273.466614 
	C174.266998,275.489136 178.704712,276.931091 182.773575,279.082062 
	C186.684647,281.149628 190.368713,283.683228 194.006256,286.221649 
	C197.986755,288.999390 202.031555,291.758453 205.635269,294.986755 
	C212.280701,300.939941 218.718842,307.134674 225.054901,313.418793 
	C228.362732,316.699463 231.269577,320.384430 234.642334,324.137787 
z"></path>
  <path fill="#FFFFFF" opacity="1.000000" stroke="none" d="
M318.835907,266.667694 
	C330.236328,260.877991 341.233459,255.011002 352.607544,249.999619 
	C358.235748,247.519867 364.576813,246.680847 370.558868,244.971756 
	C373.476624,244.138123 376.244965,242.682297 379.197693,242.092880 
	C383.957794,241.142685 388.796112,240.457901 393.634186,240.051300 
	C403.418488,239.229004 413.266327,237.780960 423.010803,238.237656 
	C433.787506,238.742706 444.478119,241.088531 455.205414,242.638382 
	C456.331085,242.801041 457.451172,243.002213 459.666138,243.363846 
	C458.507721,254.608765 457.339783,265.946289 456.138794,277.604523 
	C417.505310,265.320984 380.987091,271.348969 346.483673,290.150452 
	C312.220001,308.821259 289.335144,337.425293 277.285828,374.983002 
	C276.525940,374.095978 275.456085,373.328308 275.054626,372.299744 
	C272.622040,366.067871 270.621674,359.653442 267.931610,353.539917 
	C265.291992,347.541138 261.848907,341.898743 259.117340,335.935547 
	C258.505707,334.600281 258.942413,332.362335 259.653076,330.910217 
	C265.731415,318.490601 274.502380,307.871704 283.358246,297.462494 
	C288.629089,291.267120 295.291931,286.225861 301.508240,280.873993 
	C307.073914,276.082214 312.885162,271.575653 318.835907,266.667694 
z"></path>
  <path fill="#FFFFFF" opacity="1.000000" stroke="none" d="
M207.211151,427.983459 
	C203.913849,426.974091 201.106155,425.575287 198.145447,425.066193 
	C191.372070,423.901337 189.275467,419.453979 187.868179,413.339020 
	C184.857407,400.256622 179.710083,388.246552 171.301407,377.297333 
	C163.517838,367.162079 154.572052,358.874176 143.811432,352.374908 
	C134.738846,346.895203 125.141853,342.594238 114.522064,340.983032 
	C106.828995,339.815887 99.148834,338.563629 90.349747,337.173462 
	C86.179817,328.019440 81.592552,317.968597 77.046722,307.899078 
	C76.865120,307.496857 77.076836,306.917053 77.105042,306.424591 
	C160.472137,295.721069 222.783600,361.064484 223.789413,431.858734 
	C218.349884,430.559052 212.990585,429.278503 207.211151,427.983459 
z"></path>
  <path fill="#FFFFFF" opacity="1.000000" stroke="none" d="
M429.281586,343.220734 
	C406.111450,381.062469 366.612366,410.445404 333.183289,421.832001 
	C334.187622,416.762482 335.125458,412.195404 335.991272,407.614746 
	C337.008087,402.235291 337.274200,396.594513 339.114197,391.519684 
	C341.528473,384.860992 344.635559,378.310852 348.421844,372.332977 
	C352.087128,366.546143 356.336670,360.766357 361.523102,356.401672 
	C367.447357,351.416107 374.838287,348.215576 381.308197,343.821655 
	C385.831818,340.749481 390.618744,339.113861 395.972382,338.438599 
	C403.628998,337.472778 411.214966,335.590179 418.884705,335.225403 
	C423.149689,335.022552 427.523346,337.105011 432.233765,338.251404 
	C431.245026,339.986633 430.398804,341.471741 429.281586,343.220734 
z"></path>
  <path fill="#FFFFFF" opacity="1.000000" stroke="none" d="
M122.764793,378.265656 
	C115.823204,370.460419 109.132629,362.912262 101.946838,354.805420 
	C112.199326,354.729065 125.238197,354.673645 147.411774,372.900574 
	C160.289871,383.486542 169.352234,396.660431 172.294739,414.130280 
	C153.710754,404.466217 137.557129,392.614075 122.764793,378.265656 
z"></path>
</svg>